<svg data-v-423bf9ae="" xmlns="http://www.w3.org/2000/svg" viewBox="0 0 326.0744989953629 60" class="font"><!----><!----><!----><g data-v-423bf9ae="" id="701199ef-25e8-4ba3-81f0-d16c07722411" fill="white" transform="matrix(5.730658879632186,0,0,5.730658879632186,-7.048705218599423,-2.5787959128532307)"><path d="M4.91 10.92Q4.33 10.92 3.76 10.66Q3.19 10.40 2.77 10.09L2.77 10.09Q2.18 9.65 2.07 9.65L2.07 9.65Q1.79 9.65 1.71 10.25L1.71 10.25L1.65 10.81L1.33 10.81L1.23 6.38L1.57 6.38Q1.65 7.42 2.15 8.37Q2.65 9.31 3.39 9.89Q4.13 10.47 4.91 10.47L4.91 10.47Q6.06 10.47 6.59 9.91Q7.11 9.35 7.11 8.57L7.11 8.57Q7.11 7.88 6.71 7.49Q6.31 7.10 5.54 6.79L5.54 6.79L3.42 5.94Q2.31 5.49 1.79 4.78Q1.26 4.07 1.26 3.08L1.26 3.08Q1.26 1.74 2.04 1.09Q2.83 0.45 4.00 0.45L4.00 0.45Q4.93 0.45 6.05 1.29L6.05 1.29Q6.19 1.39 6.33 1.46Q6.47 1.54 6.58 1.54L6.58 1.54Q6.82 1.54 6.86 1.20L6.86 1.20L6.92 0.70L7.25 0.70L7.39 4.34L7.06 4.34Q6.83 3.33 6.35 2.55Q5.87 1.76 5.22 1.33Q4.58 0.90 3.89 0.90L3.89 0.90Q3.11 0.90 2.60 1.41Q2.10 1.92 2.10 2.83L2.10 2.83Q2.10 3.46 2.42 3.81Q2.74 4.16 3.37 4.41L3.37 4.41L6.08 5.49Q7.01 5.87 7.48 6.57Q7.95 7.27 7.95 8.04L7.95 8.04Q7.95 8.78 7.62 9.44Q7.29 10.09 6.62 10.51Q5.94 10.92 4.91 10.92L4.91 10.92ZM11.14 10.84Q10.40 10.84 9.86 10.47Q9.32 10.11 9.32 9.18L9.32 9.18Q9.32 8.47 9.69 8.06Q10.05 7.66 10.54 7.48Q11.02 7.31 11.70 7.18L11.70 7.18L12.99 6.94L12.99 5.75Q12.99 4.45 11.69 4.45L11.69 4.45Q11.21 4.45 10.82 4.70Q10.43 4.94 10.43 5.25L10.43 5.25Q10.43 5.39 10.47 5.46L10.47 5.46Q10.50 5.50 10.56 5.54Q10.63 5.59 10.68 5.60L10.68 5.60Q10.93 5.67 11.07 5.80Q11.20 5.92 11.20 6.15L11.20 6.15Q11.20 6.44 11.03 6.57Q10.85 6.69 10.58 6.69L10.58 6.69Q10.28 6.69 10.02 6.45Q9.77 6.22 9.77 5.77L9.77 5.77Q9.77 5.25 10.06 4.87Q10.35 4.49 10.80 4.31Q11.26 4.12 11.73 4.12L11.73 4.12Q12.66 4.12 13.33 4.60Q14 5.08 14 6.10L14 6.10L14 9.55Q14 10.25 14.43 10.25L14.43 10.25Q14.78 10.25 14.94 9.84Q15.09 9.44 15.09 8.85L15.09 8.85L15.34 8.85Q15.34 9.69 15.10 10.26Q14.85 10.84 14.22 10.84L14.22 10.84Q13.62 10.84 13.32 10.48Q13.02 10.12 12.99 9.49L12.99 9.49L12.92 9.46Q12.71 9.95 12.24 10.40Q11.77 10.84 11.14 10.84L11.14 10.84ZM11.37 10.33Q12.00 10.33 12.36 9.84Q12.71 9.34 12.99 8.57L12.99 8.57L12.99 7.24L11.77 7.50Q11.10 7.64 10.80 8.06Q10.50 8.47 10.50 9.23L10.50 9.23Q10.50 9.87 10.77 10.10Q11.03 10.33 11.37 10.33L11.37 10.33ZM16.13 10.67L16.13 10.33L16.72 10.33Q16.88 10.33 16.95 10.26Q17.02 10.19 17.02 10.02L17.02 10.02L17.02 4.93Q17.02 4.76 16.95 4.69Q16.88 4.62 16.72 4.62L16.72 4.62L16.13 4.62L16.13 4.28L18.03 4.28L18.03 5.40L18.09 5.42Q18.38 4.77 18.85 4.45Q19.32 4.12 19.85 4.12L19.85 4.12Q20.68 4.12 21.08 4.56Q21.48 5.01 21.62 5.63L21.62 5.63L21.67 5.63Q21.84 5.07 22.34 4.59Q22.83 4.12 23.49 4.12L23.49 4.12Q24.51 4.12 24.94 4.80Q25.37 5.49 25.37 6.41L25.37 6.41L25.37 10.02Q25.37 10.19 25.44 10.26Q25.51 10.33 25.68 10.33L25.68 10.33L26.26 10.33L26.26 10.67L23.46 10.67L23.46 10.33L24.05 10.33Q24.22 10.33 24.29 10.26Q24.36 10.19 24.36 10.02L24.36 10.02L24.36 5.92Q24.36 5.36 24.09 4.94Q23.83 4.51 23.32 4.51L23.32 4.51Q22.90 4.51 22.53 4.84Q22.16 5.17 21.93 5.74Q21.70 6.31 21.70 7.03L21.70 7.03L21.70 10.02Q21.70 10.19 21.77 10.26Q21.84 10.33 22.01 10.33L22.01 10.33L22.60 10.33L22.60 10.67L19.80 10.67L19.80 10.33L20.38 10.33Q20.55 10.33 20.62 10.26Q20.69 10.19 20.69 10.02L20.69 10.02L20.69 5.92Q20.69 5.36 20.43 4.94Q20.16 4.51 19.66 4.51L19.66 4.51Q19.24 4.51 18.87 4.84Q18.49 5.17 18.26 5.74Q18.03 6.31 18.03 7.03L18.03 7.03L18.03 10.02Q18.03 10.19 18.10 10.26Q18.17 10.33 18.34 10.33L18.34 10.33L18.93 10.33L18.93 10.67L16.13 10.67ZM28.56 2.55Q28.25 2.55 28.04 2.34Q27.83 2.13 27.83 1.82L27.83 1.82Q27.83 1.50 28.04 1.30Q28.25 1.09 28.56 1.09L28.56 1.09Q28.88 1.09 29.09 1.30Q29.29 1.50 29.29 1.82L29.29 1.82Q29.29 2.13 29.09 2.34Q28.88 2.55 28.56 2.55L28.56 2.55ZM27.24 10.67L27.24 10.33L27.83 10.33Q28 10.33 28.07 10.26Q28.14 10.19 28.14 10.02L28.14 10.02L28.14 4.93Q28.14 4.76 28.07 4.69Q28 4.62 27.83 4.62L27.83 4.62L27.24 4.62L27.24 4.28L29.15 4.28L29.15 10.02Q29.15 10.19 29.22 10.26Q29.29 10.33 29.46 10.33L29.46 10.33L30.04 10.33L30.04 10.67L27.24 10.67ZM30.88 10.67L30.88 10.33L31.61 10.33Q31.78 10.33 31.85 10.26Q31.92 10.19 31.92 10.02L31.92 10.02L31.92 1.34Q31.92 1.18 31.85 1.11Q31.78 1.04 31.61 1.04L31.61 1.04L30.88 1.04L30.88 0.70L32.93 0.70L32.93 7.83L34.83 5.50Q34.99 5.33 35.04 5.24Q35.08 5.14 35.08 4.98L35.08 4.98Q35.08 4.80 34.95 4.71Q34.82 4.62 34.61 4.62L34.61 4.62L34.24 4.62L34.24 4.28L37.10 4.28L37.10 4.62L36.65 4.62Q36.27 4.62 35.98 4.82Q35.69 5.01 35.31 5.47L35.31 5.47L34.24 6.78L36.43 9.88Q36.60 10.12 36.72 10.23Q36.85 10.33 37.07 10.33L37.07 10.33L37.35 10.33L37.35 10.67L34.38 10.67L34.38 10.33L34.75 10.33Q34.93 10.33 35.03 10.27Q35.13 10.21 35.13 10.05L35.13 10.05Q35.13 9.90 35.08 9.80Q35.04 9.70 34.94 9.55L34.94 9.55L33.57 7.59L32.93 8.37L32.93 10.02Q32.93 10.19 33.00 10.26Q33.07 10.33 33.24 10.33L33.24 10.33L33.68 10.33L33.68 10.67L30.88 10.67ZM38.61 10.84L38.61 8.06L38.86 8.06L39.38 9.17Q40.14 10.50 41.34 10.50L41.34 10.50Q41.99 10.50 42.30 10.19Q42.62 9.87 42.62 9.32L42.62 9.32Q42.62 9.00 42.37 8.74Q42.13 8.48 41.72 8.33L41.72 8.33L40.12 7.69Q39.37 7.38 38.93 6.94Q38.50 6.51 38.50 5.84L38.50 5.84Q38.50 4.98 39.03 4.55Q39.56 4.12 40.38 4.12L40.38 4.12Q40.78 4.12 41.14 4.25Q41.50 4.38 41.73 4.56L41.73 4.56Q42.04 4.79 42.20 4.79L42.20 4.79Q42.38 4.79 42.42 4.54L42.42 4.54L42.45 4.26L42.70 4.26L42.70 6.38L42.45 6.38L42.25 5.89Q41.93 5.10 41.41 4.77Q40.88 4.45 40.36 4.45L40.36 4.45Q39.84 4.45 39.51 4.71Q39.17 4.97 39.17 5.43L39.17 5.43Q39.17 5.84 39.50 6.10Q39.83 6.36 40.40 6.59L40.40 6.59L41.92 7.22Q42.59 7.50 42.92 7.90Q43.26 8.30 43.26 9.02L43.26 9.02Q43.26 9.95 42.73 10.40Q42.20 10.84 41.33 10.84L41.33 10.84Q40.81 10.84 40.49 10.70Q40.17 10.56 39.86 10.32L39.86 10.32Q39.73 10.22 39.61 10.15Q39.48 10.08 39.38 10.08L39.38 10.08Q39.05 10.08 38.92 10.56L38.92 10.56L38.86 10.84L38.61 10.84ZM44.24 10.67L44.24 10.33L45.02 10.33Q45.19 10.33 45.26 10.26Q45.33 10.19 45.33 10.02L45.33 10.02L45.33 1.34Q45.33 1.18 45.26 1.11Q45.19 1.04 45.02 1.04L45.02 1.04L44.24 1.04L44.24 0.70L46.34 0.70L46.34 5.43L46.40 5.45Q46.72 4.77 47.19 4.45Q47.67 4.12 48.24 4.12L48.24 4.12Q49.27 4.12 49.69 4.75Q50.12 5.38 50.12 6.26L50.12 6.26L50.12 10.02Q50.12 10.19 50.19 10.26Q50.26 10.33 50.43 10.33L50.43 10.33L51.02 10.33L51.02 10.67L48.22 10.67L48.22 10.33L48.80 10.33Q48.97 10.33 49.04 10.26Q49.11 10.19 49.11 10.02L49.11 10.02L49.11 5.99Q49.11 5.38 48.87 4.94Q48.62 4.51 48.03 4.51L48.03 4.51Q47.54 4.51 47.16 4.85Q46.77 5.19 46.56 5.79Q46.34 6.38 46.34 7.11L46.34 7.11L46.34 10.02Q46.34 10.19 46.41 10.26Q46.48 10.33 46.65 10.33L46.65 10.33L47.24 10.33L47.24 10.67L44.24 10.67ZM53.93 10.84Q53.19 10.84 52.65 10.47Q52.11 10.11 52.11 9.18L52.11 9.18Q52.11 8.47 52.47 8.06Q52.84 7.66 53.32 7.48Q53.80 7.31 54.49 7.18L54.49 7.18L55.78 6.94L55.78 5.75Q55.78 4.45 54.47 4.45L54.47 4.45Q54.00 4.45 53.61 4.70Q53.21 4.94 53.21 5.25L53.21 5.25Q53.21 5.39 53.26 5.46L53.26 5.46Q53.28 5.50 53.35 5.54Q53.41 5.59 53.47 5.60L53.47 5.60Q53.72 5.67 53.85 5.80Q53.98 5.92 53.98 6.15L53.98 6.15Q53.98 6.44 53.81 6.57Q53.63 6.69 53.37 6.69L53.37 6.69Q53.06 6.69 52.81 6.45Q52.56 6.22 52.56 5.77L52.56 5.77Q52.56 5.25 52.84 4.87Q53.13 4.49 53.59 4.31Q54.04 4.12 54.52 4.12L54.52 4.12Q55.44 4.12 56.11 4.60Q56.78 5.08 56.78 6.10L56.78 6.10L56.78 9.55Q56.78 10.25 57.22 10.25L57.22 10.25Q57.57 10.25 57.72 9.84Q57.88 9.44 57.88 8.85L57.88 8.85L58.13 8.85Q58.13 9.69 57.88 10.26Q57.64 10.84 57.01 10.84L57.01 10.84Q56.41 10.84 56.10 10.48Q55.80 10.12 55.78 9.49L55.78 9.49L55.71 9.46Q55.50 9.95 55.03 10.40Q54.56 10.84 53.93 10.84L53.93 10.84ZM54.15 10.33Q54.78 10.33 55.14 9.84Q55.50 9.34 55.78 8.57L55.78 8.57L55.78 7.24L54.56 7.50Q53.89 7.64 53.59 8.06Q53.28 8.47 53.28 9.23L53.28 9.23Q53.28 9.87 53.55 10.10Q53.82 10.33 54.15 10.33L54.15 10.33Z"></path></g><!----><!----></svg>